<?xml version="1.0" standalone="no"?>
<!DOCTYPE svg PUBLIC "-//W3C//DTD SVG 20010904//EN"
 "http://www.w3.org/TR/2001/REC-SVG-20010904/DTD/svg10.dtd">
<svg version="1.0" xmlns="http://www.w3.org/2000/svg"
 width="53.000000pt" height="53.000000pt" viewBox="0 0 53.000000 53.000000"
 preserveAspectRatio="xMidYMid meet">

<g transform="translate(0.000000,53.000000) scale(0.100000,-0.100000)"
fill="#000000" stroke="none">
<path d="M88 363 c-46 -25 -55 -43 -20 -43 9 0 31 9 47 20 38 25 60 25 92 0
14 -11 40 -20 58 -20 18 0 44 9 58 20 14 11 34 20 45 20 10 0 31 -9 45 -20 27
-21 62 -26 72 -10 3 5 -10 16 -28 24 -19 8 -38 19 -41 25 -12 18 -81 13 -109
-9 -14 -11 -33 -20 -42 -20 -9 0 -28 9 -42 20 -34 26 -77 24 -135 -7z"/>
<path d="M88 273 c-26 -14 -45 -29 -42 -34 9 -15 45 -10 71 11 14 11 35 20 45
20 11 0 31 -9 45 -20 14 -11 40 -20 58 -20 18 0 44 9 58 20 32 25 58 25 90 0
26 -21 62 -26 71 -11 8 12 -91 61 -124 61 -15 0 -39 -9 -53 -20 -14 -11 -33
-20 -42 -20 -9 0 -28 9 -42 20 -34 26 -77 24 -135 -7z"/>
<path d="M109 191 c-13 -10 -33 -20 -43 -22 -11 -2 -20 -8 -20 -14 -2 -19 44
-16 73 4 36 26 56 26 88 1 14 -11 40 -20 58 -20 18 0 44 9 58 20 32 25 52 25
88 -1 29 -20 70 -23 70 -4 0 6 -8 12 -18 14 -10 2 -29 12 -42 22 -31 24 -79
24 -111 -1 -14 -11 -34 -20 -45 -20 -11 0 -31 9 -45 20 -32 25 -80 25 -111 1z"/>
</g>
</svg>
